<?xml version="1.0" encoding="UTF-8"?>
<svg id="_Слой_2" data-name="Слой 2" xmlns="http://www.w3.org/2000/svg" viewBox="0 0 192.85 196.14">
  <defs>
    <style>
      .cls-1 {
        fill: #f49300;
      }

      .cls-2 {
        fill: #fff;
      }

      .cls-3 {
        fill: #e74c7e;
      }

      .cls-4 {
        fill: #ff8b00;
      }

      .cls-5 {
        fill: #23c299;
      }

      .cls-6, .cls-7 {
        fill: #3fd2d5;
      }

      .cls-7 {
        letter-spacing: -.08em;
      }

      .cls-8 {
        font-family: NexaRustSans-Black, 'NexaRustSans Black';
        font-size: 43px;
        font-weight: 800;
      }

      .cls-9 {
        fill: #3175f2;
        letter-spacing: -.02em;
      }
    </style>
  </defs>
  <g id="Objects">
    <g>
      <g>
        <path class="cls-3" d="M30.73,83.08c-.09,0-.18-.02-.26-.06-.31-.14-.45-.51-.3-.83,6.9-14.89,18.78-27.16,33.45-34.53,.31-.15,.68-.03,.83,.28,.15,.31,.03,.68-.28,.84-14.42,7.25-26.1,19.3-32.88,33.94-.11,.23-.33,.36-.56,.36Z"/>
        <path class="cls-3" d="M96.28,183.62c-12,0-23.89-2.98-34.39-8.62-.3-.16-.42-.54-.25-.84,.16-.3,.54-.42,.84-.25,10.32,5.54,22.01,8.47,33.81,8.47,5.69,0,11.35-.67,16.83-1.99,.33-.08,.67,.12,.75,.46,.08,.33-.13,.67-.46,.75-5.57,1.34-11.33,2.02-17.12,2.02Z"/>
        <path class="cls-3" d="M160.56,80.51c-.23,0-.44-.12-.55-.34-5.5-10.73-13.7-19.98-23.72-26.74-.28-.19-.36-.58-.17-.86,.19-.28,.58-.36,.86-.17,10.19,6.88,18.53,16.29,24.13,27.21,.16,.31,.04,.68-.27,.84-.09,.05-.19,.07-.28,.07Z"/>
      </g>
      <g>
        <path class="cls-2" d="M96.4,196.14c-13.98,0-27.88-3.41-40.18-9.86-.71-.37-.98-1.25-.61-1.95,.37-.71,1.25-.98,1.95-.61,11.89,6.23,25.32,9.53,38.84,9.53,14.36,0,28.54-3.7,40.98-10.69,.69-.39,1.58-.14,1.97,.55,.39,.7,.14,1.58-.55,1.97-12.88,7.24-27.54,11.06-42.4,11.06Z"/>
        <path class="cls-2" d="M178.92,135.78c-.14,0-.28-.02-.42-.06-.76-.23-1.2-1.04-.96-1.81,.25-.83,.49-1.67,.72-2.51,.46-1.72,.88-3.48,1.24-5.25,1.5-7.41,1.66-9.92,1.66-16.67,0-2.48-.11-4.98-.32-7.43-.07-.8,.52-1.5,1.32-1.57,.79-.07,1.5,.52,1.57,1.32,.22,2.53,.34,5.12,.34,7.68,0,6.61-.13,9.41-1.72,17.25-.37,1.83-.8,3.65-1.28,5.43-.24,.87-.48,1.73-.75,2.59-.19,.62-.76,1.03-1.38,1.03Z"/>
        <path class="cls-2" d="M176.55,81.94c-.59,0-1.15-.37-1.36-.96-8.66-23.94-28.26-43.02-52.42-51.03-.76-.25-1.17-1.07-.92-1.83,.25-.76,1.07-1.17,1.83-.92,25,8.28,45.27,28.02,54.23,52.79,.27,.75-.12,1.58-.87,1.85-.16,.06-.33,.09-.49,.09Z"/>
        <path class="cls-2" d="M12.6,126.44c-.68,0-1.29-.49-1.42-1.19-.95-5.17-1.43-10.47-1.43-15.77,0-39.37,26.56-73.84,64.59-83.82,.78-.2,1.57,.26,1.77,1.03,.2,.77-.26,1.56-1.03,1.77C38.32,38.12,12.65,71.43,12.65,109.49c0,5.12,.47,10.25,1.38,15.25,.14,.79-.38,1.54-1.16,1.69-.09,.02-.18,.02-.26,.02Z"/>
      </g>
      <g>
        <path class="cls-4" d="M97.12,56.64c-4.17,0-8.97-1.33-14-5.35-.2-.16-.33-.38-.38-.62-.07-.32-6.59-32.03,13.5-50.39,.37-.34,.93-.38,1.34-.1,.77,.52,18.69,13.06,13.91,50.53-.03,.25-.15,.49-.34,.66-.08,.08-5.82,5.27-14.03,5.27Zm-12.33-6.8c12.35,9.58,22.72,1.78,24.6,.19,2.3-18.63-1.33-30.68-4.81-37.53-2.9-5.71-6.16-8.84-7.54-10-17.22,16.52-12.89,43.81-12.25,47.33Z"/>
        <path class="cls-4" d="M96.1,65.64c-3.76,0-7.8-.95-11.42-3.84-.41-.33-.53-.89-.28-1.35,.02-.03,1.64-3.21,1.63-7.74,0-.6,.48-1.09,1.08-1.09h0c.6,0,1.08,.48,1.09,1.08,.01,3.69-.94,6.55-1.49,7.9,7.71,5.48,17.72,1.53,20.74,.11-1.21-2.7-1.81-5.2-1.83-7.61,0-.6,.47-1.09,1.07-1.1,.64,0,1.09,.47,1.1,1.07,.03,2.37,.7,4.87,2.07,7.65,.25,.52,.06,1.15-.45,1.43-.38,.21-6.34,3.48-13.31,3.48Z"/>
        <path class="cls-4" d="M97.03,31.07h-.04c-1.81,0-3.51-.72-4.79-2.01-1.28-1.29-1.97-3-1.96-4.81,0-1.81,.72-3.51,2.01-4.79,1.28-1.27,2.98-1.96,4.78-1.96h.04c1.81,0,3.51,.72,4.79,2.01,1.28,1.29,1.97,3,1.96,4.81h-1.09s1.09,0,1.09,0c0,1.81-.72,3.51-2.01,4.79-1.28,1.27-2.97,1.96-4.77,1.96Zm0-11.41c-2.54,0-4.6,2.06-4.62,4.59-.01,2.55,2.05,4.63,4.59,4.64h.02c1.22,0,2.38-.47,3.25-1.34,.88-.87,1.36-2.02,1.37-3.26h0c.01-2.55-2.05-4.63-4.59-4.64h-.02Z"/>
        <path class="cls-4" d="M70.57,52.6c-.2,0-.4-.05-.57-.16-.31-.19-.5-.52-.52-.89-.52-14.15,12.15-22.23,12.69-22.57,.51-.32,1.18-.16,1.5,.35,.32,.51,.16,1.18-.34,1.5-.12,.07-11.13,7.12-11.67,19.01,3.79-1.66,10.02-4.1,11.94-3.08,.47,.25,.78,.67,.87,1.19,.1,.59-.3,1.15-.89,1.25-.47,.08-.92-.15-1.13-.55-1.4-.2-6.91,1.78-11.43,3.86-.14,.07-.3,.1-.45,.1Zm11.76-4.3h0s0,0,0,0Z"/>
        <path class="cls-4" d="M123.41,52.87c-.16,0-.32-.03-.46-.1-4.5-2.12-9.99-4.17-11.39-3.97-.22,.39-.67,.62-1.14,.53-.59-.11-.98-.67-.88-1.26,.09-.51,.41-.93,.88-1.18,1.93-.99,8.14,1.51,11.91,3.2-.41-11.92-11.36-19.05-11.47-19.12-.51-.32-.65-.99-.33-1.5,.32-.51,1-.65,1.5-.33,.54,.34,13.13,8.55,12.47,22.7-.02,.36-.21,.69-.53,.88-.17,.1-.37,.16-.56,.16Zm-11.73-4.42h0s0,0,0,0Z"/>
        <path class="cls-4" d="M96.96,6.04h-4.26c-.2,0-.36-.16-.36-.36s.16-.36,.36-.36h4.26c.2,0,.36,.16,.36,.36s-.16,.36-.36,.36Z"/>
        <path class="cls-4" d="M95.51,8.9h-4.26c-.2,0-.36-.16-.36-.36s.16-.36,.36-.36h4.26c.2,0,.36,.16,.36,.36s-.16,.36-.36,.36Z"/>
        <path class="cls-4" d="M94.06,11.8h-4.26c-.2,0-.36-.16-.36-.36s.16-.36,.36-.36h4.26c.2,0,.36,.16,.36,.36s-.16,.36-.36,.36Z"/>
        <path class="cls-4" d="M92.61,14.97h-4.26c-.2,0-.36-.16-.36-.36s.16-.36,.36-.36h4.26c.2,0,.36,.16,.36,.36s-.16,.36-.36,.36Z"/>
        <path class="cls-4" d="M89.71,19.13h-4.26c-.2,0-.36-.16-.36-.36s.16-.36,.36-.36h4.26c.2,0,.36,.16,.36,.36s-.16,.36-.36,.36Z"/>
        <path class="cls-4" d="M89.04,22.84h-4.26c-.2,0-.36-.16-.36-.36s.16-.36,.36-.36h4.26c.2,0,.36,.16,.36,.36s-.16,.36-.36,.36Z"/>
        <path class="cls-4" d="M89.04,26.82h-4.26c-.2,0-.36-.16-.36-.36s.16-.36,.36-.36h4.26c.2,0,.36,.16,.36,.36s-.16,.36-.36,.36Z"/>
        <path class="cls-4" d="M88.35,30.34h-4.26c-.2,0-.36-.16-.36-.36s.16-.36,.36-.36h4.26c.2,0,.36,.16,.36,.36s-.16,.36-.36,.36Z"/>
        <path class="cls-4" d="M87.58,34.24h-4.26c-.2,0-.36-.16-.36-.36s.16-.36,.36-.36h4.26c.2,0,.36,.16,.36,.36s-.16,.36-.36,.36Z"/>
        <path class="cls-4" d="M87.58,37.95h-4.26c-.2,0-.36-.16-.36-.36s.16-.36,.36-.36h4.26c.2,0,.36,.16,.36,.36s-.16,.36-.36,.36Z"/>
        <path class="cls-4" d="M87.58,41.66h-4.26c-.2,0-.36-.16-.36-.36s.16-.36,.36-.36h4.26c.2,0,.36,.16,.36,.36s-.16,.36-.36,.36Z"/>
        <path class="cls-4" d="M87.58,45.37h-4.26c-.2,0-.36-.16-.36-.36s.16-.36,.36-.36h4.26c.2,0,.36,.16,.36,.36s-.16,.36-.36,.36Z"/>
        <path class="cls-4" d="M87.58,49.08h-4.26c-.2,0-.36-.16-.36-.36s.16-.36,.36-.36h4.26c.2,0,.36,.16,.36,.36s-.16,.36-.36,.36Z"/>
      </g>
      <g>
        <g>
          <path class="cls-2" d="M62.89,168.45c-.18,0-.37-.08-.5-.23-.24-.27-.2-.69,.07-.92,1.08-.93,2.11-1.92,3.07-2.96,.25-.27,.66-.28,.93-.04,.27,.25,.28,.66,.04,.93-1,1.07-2.07,2.1-3.18,3.06-.12,.11-.28,.16-.43,.16Z"/>
          <path class="cls-2" d="M38.32,177.54h-.02c-1.97,0-3.95-.15-5.89-.45-.36-.06-.6-.39-.55-.75,.05-.36,.39-.6,.75-.55,1.87,.29,3.78,.43,5.69,.43,.76,.03,1.54-.02,2.3-.07,.36-.02,.67,.25,.69,.61,.02,.36-.25,.67-.61,.69-.78,.05-1.57,.07-2.35,.07Zm10.33-1.44c-.29,0-.55-.19-.63-.48-.1-.35,.1-.71,.45-.81,2.56-.73,5.05-1.74,7.4-3,.32-.17,.71-.05,.89,.27,.17,.32,.05,.72-.27,.89-2.43,1.31-5.01,2.36-7.67,3.11-.06,.02-.12,.03-.18,.03Zm-24-1.1c-.08,0-.16-.01-.24-.04-2.57-1-5.04-2.28-7.35-3.8-.3-.2-.38-.61-.18-.91,.2-.3,.61-.38,.91-.18,2.23,1.48,4.61,2.71,7.1,3.67,.34,.13,.5,.51,.37,.85-.1,.26-.35,.42-.61,.42Zm-13.48-8.94c-.17,0-.34-.07-.47-.2-1.92-1.98-3.64-4.18-5.09-6.52-.19-.31-.1-.71,.21-.9,.31-.19,.71-.1,.9,.21,1.41,2.26,3.06,4.38,4.92,6.3,.25,.26,.25,.67-.01,.93-.13,.12-.29,.18-.46,.18Zm-8.53-13.74c-.27,0-.52-.17-.62-.44-.92-2.6-1.55-5.31-1.89-8.05-.04-.36,.21-.69,.57-.73,.35-.04,.69,.21,.73,.57,.33,2.65,.94,5.27,1.83,7.78,.12,.34-.06,.71-.4,.84-.07,.03-.15,.04-.22,.04Zm-1.99-16.05s-.04,0-.06,0c-.36-.03-.62-.35-.59-.71,.25-2.76,.8-5.49,1.63-8.11,.11-.35,.47-.54,.82-.43,.34,.11,.54,.48,.43,.82-.8,2.54-1.33,5.17-1.58,7.84-.03,.34-.32,.6-.65,.6Z"/>
          <path class="cls-2" d="M5.57,120.82c-.11,0-.22-.03-.33-.09-.31-.18-.42-.58-.24-.89,.74-1.27,1.55-2.51,2.43-3.69,.22-.29,.63-.35,.92-.13,.29,.22,.35,.63,.13,.92-.85,1.14-1.64,2.34-2.35,3.56-.12,.21-.34,.33-.57,.33Z"/>
        </g>
        <path class="cls-2" d="M38.3,177.61c-17.53,0-32.85-11.83-37.28-28.77-.1-.39,.13-.78,.52-.88,.39-.1,.78,.13,.88,.52,4.25,16.3,19.01,27.68,35.87,27.68,10.29,0,20.2-4.33,27.19-11.87,.27-.29,.73-.31,1.02-.04,.29,.27,.31,.73,.04,1.02-7.27,7.84-17.57,12.34-28.26,12.34Z"/>
        <path class="cls-2" d="M151.37,179.9c-.37,0-.68-.3-.7-.67-.01-.38,.29-.7,.67-.72,.42-.01,.83-.03,1.25-.06,2.61-.16,5.2-.56,7.71-1.2,.37-.09,.75,.13,.84,.5,.09,.37-.13,.75-.5,.85-2.59,.66-5.27,1.08-7.97,1.24-.43,.03-.86,.05-1.29,.06h-.02Zm-9.18-.72s-.09,0-.13-.01c-3.07-.58-6.08-1.51-8.94-2.75-.35-.15-.51-.56-.36-.91,.15-.35,.56-.51,.91-.36,2.77,1.2,5.68,2.1,8.65,2.66,.38,.07,.62,.44,.55,.81-.06,.33-.36,.57-.68,.57Zm26.91-3.79c-.25,0-.5-.14-.62-.38-.17-.34-.04-.76,.31-.93,2.69-1.37,5.24-3.03,7.58-4.96,.3-.24,.73-.2,.98,.09,.24,.3,.2,.73-.09,.98-2.42,1.99-5.05,3.71-7.83,5.12-.1,.05-.21,.08-.31,.08Zm14.13-11.63c-.15,0-.3-.05-.43-.15-.3-.24-.36-.67-.12-.98,1.86-2.38,3.47-4.97,4.76-7.69,.17-.35,.58-.49,.93-.33,.35,.17,.49,.58,.33,.93-1.34,2.81-3,5.49-4.92,7.95-.14,.18-.34,.27-.55,.27Zm7.87-16.51c-.05,0-.1,0-.16-.02-.37-.09-.61-.46-.52-.83,.67-2.94,1.02-5.96,1.03-8.99,0-.38,.31-.69,.7-.69h0c.38,0,.69,.31,.69,.7-.02,3.13-.38,6.26-1.07,9.29-.07,.32-.36,.54-.68,.54Zm.1-18.3c-.32,0-.61-.22-.68-.55-.36-1.65-.82-3.29-1.37-4.89-.13-.36,.07-.76,.43-.89,.36-.13,.76,.06,.89,.43,.57,1.65,1.05,3.35,1.42,5.05,.08,.38-.16,.75-.53,.83-.05,.01-.1,.02-.15,.02Z"/>
        <path class="cls-2" d="M119.02,177.62c-6.92,0-13.75-2.26-19.41-6.59-.34-.26-.4-.74-.14-1.08,.26-.34,.74-.4,1.08-.14,8.02,6.14,18.52,7.9,28.09,4.71,15.87-5.3,24.48-22.53,19.18-38.4-.13-.4,.08-.84,.49-.97,.4-.14,.84,.08,.97,.49,5.57,16.68-3.47,34.77-20.15,40.34-3.3,1.1-6.71,1.64-10.1,1.64Z"/>
        <path class="cls-2" d="M85.6,175.28c-13.8,0-25.03-11.23-25.03-25.03,0-.34,.28-.62,.62-.62s.62,.28,.62,.62c0,13.12,10.67,23.79,23.79,23.79,9.02,0,17.16-5,21.24-13.06,.16-.31,.53-.43,.84-.27,.31,.16,.43,.53,.27,.84-4.29,8.48-12.85,13.74-22.35,13.74Z"/>
      </g>
      <g>
        <path class="cls-2" d="M79.86,84.76c-.17,0-.34-.06-.47-.18-.3-.26-.33-.72-.07-1.02,4.19-4.83,6.49-11.01,6.49-17.41,0-.4,.32-.72,.72-.72s.72,.32,.72,.72c0,6.75-2.43,13.27-6.85,18.36-.14,.16-.34,.25-.55,.25Z"/>
        <path class="cls-2" d="M111.2,80.79c-.25,0-.49-.13-.62-.35-2.56-4.31-3.91-9.25-3.91-14.29,0-.4,.32-.72,.72-.72s.72,.32,.72,.72c0,4.78,1.28,9.46,3.71,13.55,.2,.34,.09,.79-.25,.99-.12,.07-.24,.1-.37,.1Z"/>
        <path class="cls-2" d="M100.01,81.22c-.4,0-.72-.32-.72-.72v-10.81c0-.4,.32-.72,.72-.72s.72,.32,.72,.72v10.81c0,.4-.32,.72-.72,.72Z"/>
        <path class="cls-2" d="M93.27,78.32c-.4,0-.72-.32-.72-.72v-7.91c0-.4,.32-.72,.72-.72s.72,.32,.72,.72v7.91c0,.4-.32,.72-.72,.72Z"/>
      </g>
      <g>
        <path class="cls-6" d="M138.05,82.25c-.19,0-.38-.09-.5-.25-5.78-7.84-13.61-13.84-22.66-17.35-.32-.12-.48-.48-.36-.81,.12-.32,.49-.48,.8-.35,9.26,3.59,17.29,9.74,23.21,17.77,.2,.28,.14,.67-.13,.87-.11,.08-.24,.12-.37,.12Z"/>
        <path class="cls-6" d="M54.25,83.08c-.12,0-.25-.04-.36-.11-.28-.2-.35-.59-.15-.87,5.97-8.45,14.21-14.88,23.81-18.61,.32-.12,.68,.03,.8,.36,.12,.32-.03,.68-.36,.81-9.38,3.64-17.41,9.92-23.25,18.17-.12,.17-.31,.26-.51,.26Z"/>
      </g>
      <text class="cls-8" transform="translate(41.76 127.02)"><tspan class="cls-3" x="0" y="0">S</tspan><tspan class="cls-7" x="21.2" y="0">P</tspan><tspan class="cls-9" x="40.46" y="0">A</tspan><tspan class="cls-5" x="66.13" y="0">C</tspan><tspan class="cls-1" x="91.07" y="0">E</tspan></text>
    </g>
  </g>
</svg>